{
	"asset":{
		"generator":"Khronos glTF Blender I/O v4.0.44",
		"version":"2.0"
	},
	"scene":0,
	"scenes":[
		{
			"name":"Scene",
			"nodes":[
				0,
				1,
				2,
				3,
				4,
				5,
				6
			]
		}
	],
	"nodes":[
		{
			"mesh":0,
			"name":"shore",
			"scale":[
				-7.304607391357422,
				-16.7408504486084,
				-7.304607391357422
			],
			"translation":[
				0,
				24.91753387451172,
				0
			]
		},
		{
			"mesh":1,
			"name":"ramp",
			"rotation":[
				0,
				-0.9927141070365906,
				0,
				0.12049372494220734
			],
			"scale":[
				7.609168529510498,
				11.643767356872559,
				7.609168529510498
			],
			"translation":[
				0,
				3.633831024169922,
				0
			]
		},
		{
			"mesh":2,
			"name":"lower_terrace",
			"scale":[
				50.43179702758789,
				50.43179702758789,
				50.43179702758789
			],
			"translation":[
				0,
				4.010931015014648,
				0
			]
		},
		{
			"mesh":3,
			"name":"upper_terrace",
			"translation":[
				0,
				48.00957489013672,
				0
			]
		},
		{
			"mesh":4,
			"name":"lower_fence",
			"rotation":[
				0.04943704232573509,
				0.049437038600444794,
				0.705376386642456,
				0.7053765654563904
			],
			"scale":[
				1.1350806951522827,
				1.1565711498260498,
				1.941738486289978
			],
			"translation":[
				41.482940673828125,
				5.017374038696289,
				-14.476195335388184
			]
		},
		{
			"mesh":5,
			"name":"upper_fence",
			"translation":[
				0,
				48.07564163208008,
				0
			]
		},
		{
			"mesh":6,
			"name":"railing_ramp",
			"rotation":[
				0,
				-0.9927141070365906,
				0,
				0.12049372494220734
			],
			"scale":[
				7.609168529510498,
				11.643767356872559,
				7.609168529510498
			],
			"translation":[
				0,
				3.633831024169922,
				0
			]
		}
	],
	"materials":[
		{
			"doubleSided":true,
			"name":"szene",
			"pbrMetallicRoughness":{
				"baseColorTexture":{
					"index":0
				},
				"metallicFactor":0,
				"roughnessFactor":0.5
			}
		},
		{
			"alphaCutoff":0.5,
			"alphaMode":"MASK",
			"name":"zaun",
			"pbrMetallicRoughness":{
				"baseColorTexture":{
					"index":1
				},
				"metallicFactor":0,
				"roughnessFactor":0.5
			}
		},
		{
			"alphaCutoff":0.5,
			"alphaMode":"MASK",
			"name":"gel\u00e4nder",
			"pbrMetallicRoughness":{
				"baseColorTexture":{
					"index":2
				},
				"metallicFactor":0,
				"roughnessFactor":0.5
			}
		}
	],
	"meshes":[
		{
			"name":"Cylinder.001",
			"primitives":[
				{
					"attributes":{
						"POSITION":0,
						"NORMAL":1,
						"TEXCOORD_0":2
					},
					"indices":3,
					"material":0
				}
			]
		},
		{
			"name":"Plane.001",
			"primitives":[
				{
					"attributes":{
						"POSITION":4,
						"NORMAL":5,
						"TEXCOORD_0":6
					},
					"indices":7,
					"material":0
				}
			]
		},
		{
			"name":"Circle.001",
			"primitives":[
				{
					"attributes":{
						"POSITION":8,
						"NORMAL":9,
						"TEXCOORD_0":10
					},
					"indices":11,
					"material":0
				}
			]
		},
		{
			"name":"Plane",
			"primitives":[
				{
					"attributes":{
						"POSITION":12,
						"NORMAL":13,
						"TEXCOORD_0":14
					},
					"indices":15,
					"material":0
				}
			]
		},
		{
			"name":"Plane.003",
			"primitives":[
				{
					"attributes":{
						"POSITION":16,
						"NORMAL":17,
						"TEXCOORD_0":18
					},
					"indices":19,
					"material":1
				}
			]
		},
		{
			"name":"Plane.005",
			"primitives":[
				{
					"attributes":{
						"POSITION":20,
						"NORMAL":21,
						"TEXCOORD_0":22
					},
					"indices":23,
					"material":1
				}
			]
		},
		{
			"name":"Plane.006",
			"primitives":[
				{
					"attributes":{
						"POSITION":24,
						"NORMAL":25,
						"TEXCOORD_0":26
					},
					"indices":27,
					"material":2
				}
			]
		}
	],
	"textures":[
		{
			"sampler":0,
			"source":0
		},
		{
			"sampler":0,
			"source":1
		},
		{
			"sampler":0,
			"source":2
		}
	],
	"images":[
		{
			"mimeType":"image/jpeg",
			"name":"scene",
			"uri":"scene.jpg"
		},
		{
			"mimeType":"image/png",
			"name":"fence",
			"uri":"fence.png"
		},
		{
			"mimeType":"image/png",
			"name":"railing",
			"uri":"railing.png"
		}
	],
	"accessors":[
		{
			"bufferView":0,
			"componentType":5126,
			"count":163,
			"max":[
				1.2715035676956177,
				1.2715035676956177,
				1.2715035676956177
			],
			"min":[
				-1.2715034484863281,
				-1.250375509262085,
				-1.2715035676956177
			],
			"type":"VEC3"
		},
		{
			"bufferView":1,
			"componentType":5126,
			"count":163,
			"type":"VEC3"
		},
		{
			"bufferView":2,
			"componentType":5126,
			"count":163,
			"type":"VEC2"
		},
		{
			"bufferView":3,
			"componentType":5123,
			"count":564,
			"type":"SCALAR"
		},
		{
			"bufferView":4,
			"componentType":5126,
			"count":648,
			"max":[
				1.9939863681793213,
				3.8879928588867188,
				1.9840781688690186
			],
			"min":[
				-1.9960726499557495,
				-0.0246008038520813,
				-1.9832463264465332
			],
			"type":"VEC3"
		},
		{
			"bufferView":5,
			"componentType":5126,
			"count":648,
			"type":"VEC3"
		},
		{
			"bufferView":6,
			"componentType":5126,
			"count":648,
			"type":"VEC2"
		},
		{
			"bufferView":7,
			"componentType":5123,
			"count":1908,
			"type":"SCALAR"
		},
		{
			"bufferView":8,
			"componentType":5126,
			"count":158,
			"max":[
				0.8386316299438477,
				0,
				0.9850887060165405
			],
			"min":[
				-0.8436020016670227,
				-0.07939831912517548,
				-0.9612308144569397
			],
			"type":"VEC3"
		},
		{
			"bufferView":9,
			"componentType":5126,
			"count":158,
			"type":"VEC3"
		},
		{
			"bufferView":10,
			"componentType":5126,
			"count":158,
			"type":"VEC2"
		},
		{
			"bufferView":11,
			"componentType":5123,
			"count":372,
			"type":"SCALAR"
		},
		{
			"bufferView":12,
			"componentType":5126,
			"count":292,
			"max":[
				34.0035285949707,
				0.8951377868652344,
				39.90276336669922
			],
			"min":[
				-34.4185791015625,
				-2.1664657592773438,
				-39.136653900146484
			],
			"type":"VEC3"
		},
		{
			"bufferView":13,
			"componentType":5126,
			"count":292,
			"type":"VEC3"
		},
		{
			"bufferView":14,
			"componentType":5126,
			"count":292,
			"type":"VEC2"
		},
		{
			"bufferView":15,
			"componentType":5123,
			"count":816,
			"type":"SCALAR"
		},
		{
			"bufferView":16,
			"componentType":5126,
			"count":128,
			"max":[
				0.8901805877685547,
				74.57298278808594,
				29.741662979125977
			],
			"min":[
				-0.9364955425262451,
				-0.0001023476361297071,
				-20.04176139831543
			],
			"type":"VEC3"
		},
		{
			"bufferView":17,
			"componentType":5126,
			"count":128,
			"type":"VEC3"
		},
		{
			"bufferView":18,
			"componentType":5126,
			"count":128,
			"type":"VEC2"
		},
		{
			"bufferView":19,
			"componentType":5123,
			"count":192,
			"type":"SCALAR"
		},
		{
			"bufferView":20,
			"componentType":5126,
			"count":416,
			"max":[
				33.693302154541016,
				2.8100476264953613,
				39.51652526855469
			],
			"min":[
				-34.09402847290039,
				0.6971619129180908,
				-38.789615631103516
			],
			"type":"VEC3"
		},
		{
			"bufferView":21,
			"componentType":5126,
			"count":416,
			"type":"VEC3"
		},
		{
			"bufferView":22,
			"componentType":5126,
			"count":416,
			"type":"VEC2"
		},
		{
			"bufferView":23,
			"componentType":5123,
			"count":624,
			"type":"SCALAR"
		},
		{
			"bufferView":24,
			"componentType":5126,
			"count":324,
			"max":[
				1.9939863681793213,
				3.9938464164733887,
				1.9840781688690186
			],
			"min":[
				-1.9960726499557495,
				0.02605666220188141,
				-1.9832463264465332
			],
			"type":"VEC3"
		},
		{
			"bufferView":25,
			"componentType":5126,
			"count":324,
			"type":"VEC3"
		},
		{
			"bufferView":26,
			"componentType":5126,
			"count":324,
			"type":"VEC2"
		},
		{
			"bufferView":27,
			"componentType":5123,
			"count":948,
			"type":"SCALAR"
		}
	],
	"bufferViews":[
		{
			"buffer":0,
			"byteLength":1956,
			"byteOffset":0,
			"target":34962
		},
		{
			"buffer":0,
			"byteLength":1956,
			"byteOffset":1956,
			"target":34962
		},
		{
			"buffer":0,
			"byteLength":1304,
			"byteOffset":3912,
			"target":34962
		},
		{
			"buffer":0,
			"byteLength":1128,
			"byteOffset":5216,
			"target":34963
		},
		{
			"buffer":0,
			"byteLength":7776,
			"byteOffset":6344,
			"target":34962
		},
		{
			"buffer":0,
			"byteLength":7776,
			"byteOffset":14120,
			"target":34962
		},
		{
			"buffer":0,
			"byteLength":5184,
			"byteOffset":21896,
			"target":34962
		},
		{
			"buffer":0,
			"byteLength":3816,
			"byteOffset":27080,
			"target":34963
		},
		{
			"buffer":0,
			"byteLength":1896,
			"byteOffset":30896,
			"target":34962
		},
		{
			"buffer":0,
			"byteLength":1896,
			"byteOffset":32792,
			"target":34962
		},
		{
			"buffer":0,
			"byteLength":1264,
			"byteOffset":34688,
			"target":34962
		},
		{
			"buffer":0,
			"byteLength":744,
			"byteOffset":35952,
			"target":34963
		},
		{
			"buffer":0,
			"byteLength":3504,
			"byteOffset":36696,
			"target":34962
		},
		{
			"buffer":0,
			"byteLength":3504,
			"byteOffset":40200,
			"target":34962
		},
		{
			"buffer":0,
			"byteLength":2336,
			"byteOffset":43704,
			"target":34962
		},
		{
			"buffer":0,
			"byteLength":1632,
			"byteOffset":46040,
			"target":34963
		},
		{
			"buffer":0,
			"byteLength":1536,
			"byteOffset":47672,
			"target":34962
		},
		{
			"buffer":0,
			"byteLength":1536,
			"byteOffset":49208,
			"target":34962
		},
		{
			"buffer":0,
			"byteLength":1024,
			"byteOffset":50744,
			"target":34962
		},
		{
			"buffer":0,
			"byteLength":384,
			"byteOffset":51768,
			"target":34963
		},
		{
			"buffer":0,
			"byteLength":4992,
			"byteOffset":52152,
			"target":34962
		},
		{
			"buffer":0,
			"byteLength":4992,
			"byteOffset":57144,
			"target":34962
		},
		{
			"buffer":0,
			"byteLength":3328,
			"byteOffset":62136,
			"target":34962
		},
		{
			"buffer":0,
			"byteLength":1248,
			"byteOffset":65464,
			"target":34963
		},
		{
			"buffer":0,
			"byteLength":3888,
			"byteOffset":66712,
			"target":34962
		},
		{
			"buffer":0,
			"byteLength":3888,
			"byteOffset":70600,
			"target":34962
		},
		{
			"buffer":0,
			"byteLength":2592,
			"byteOffset":74488,
			"target":34962
		},
		{
			"buffer":0,
			"byteLength":1896,
			"byteOffset":77080,
			"target":34963
		}
	],
	"samplers":[
		{
			"magFilter":9729,
			"minFilter":9987
		}
	],
	"buffers":[
		{
			"byteLength":78976,
			"uri":"end_mvp.bin"
		}
	]
}
