{
	"asset":{
		"generator":"Khronos glTF Blender I/O v3.5.30",
		"version":"2.0"
	},
	"scene":0,
	"scenes":[
		{
			"name":"Scene",
			"nodes":[
				0,
				1
			]
		}
	],
	"nodes":[
		{
			"name":"Empty"
		},
		{
			"mesh":0,
			"name":"Circle",
			"scale":[
				1.7352306842803955,
				1.7352306842803955,
				1.7352306842803955
			]
		}
	],
	"materials":[
		{
			"alphaCutoff":0.5,
			"alphaMode":"MASK",
			"doubleSided":true,
			"name":"Material",
			"pbrMetallicRoughness":{
				"baseColorTexture":{
					"index":0
				},
				"metallicFactor":0,
				"roughnessFactor":0.5
			}
		}
	],
	"meshes":[
		{
			"name":"Circle",
			"primitives":[
				{
					"attributes":{
						"POSITION":0,
						"TEXCOORD_0":1,
						"NORMAL":2
					},
					"indices":3,
					"material":0
				}
			]
		}
	],
	"textures":[
		{
			"sampler":0,
			"source":0
		}
	],
	"images":[
		{
			"bufferView":4,
			"mimeType":"image/png",
			"name":"big-modified"
		}
	],
	"accessors":[
		{
			"bufferView":0,
			"componentType":5126,
			"count":15994,
			"max":[
				5.112154483795166,
				8.409018516540527,
				5.122541427612305
			],
			"min":[
				-5.731057643890381,
				0,
				-5.157792568206787
			],
			"type":"VEC3"
		},
		{
			"bufferView":1,
			"componentType":5126,
			"count":15994,
			"type":"VEC2"
		},
		{
			"bufferView":2,
			"componentType":5126,
			"count":15994,
			"type":"VEC3"
		},
		{
			"bufferView":3,
			"componentType":5123,
			"count":25011,
			"type":"SCALAR"
		}
	],
	"bufferViews":[
		{
			"buffer":0,
			"byteLength":191928,
			"byteOffset":0,
			"target":34962
		},
		{
			"buffer":0,
			"byteLength":127952,
			"byteOffset":191928,
			"target":34962
		},
		{
			"buffer":0,
			"byteLength":191928,
			"byteOffset":319880,
			"target":34962
		},
		{
			"buffer":0,
			"byteLength":50022,
			"byteOffset":511808,
			"target":34963
		},
		{
			"buffer":0,
			"byteLength":1337529,
			"byteOffset":561832
		}
	],
	"samplers":[
		{
			"magFilter":9729,
			"minFilter":9987
		}
	],
	"buffers":[
		{
			"byteLength":1899364,
			"uri":"data:application/octet-stream;base64,"
		}
	]
}
