{
	"asset":{
		"generator":"Khronos glTF Blender I/O v3.5.30",
		"version":"2.0"
	},
	"scene":0,
	"scenes":[
		{
			"name":"Scene",
			"nodes":[
				0,
				1
			]
		}
	],
	"nodes":[
		{
			"mesh":0,
			"name":"robot",
			"rotation":[
				-0.7071068286895752,
				0,
				0,
				0.7071068286895752
			],
			"scale":[
				1.4029351472854614,
				0.25942522287368774,
				1.4029351472854614
			],
			"translation":[
				0,
				1.3972194194793701,
				2.38598370552063
			]
		},
		{
			"mesh":1,
			"name":"robot_arm",
			"rotation":[
				0.6403744220733643,
				0,
				0,
				0.7680628895759583
			],
			"scale":[
				0.3081668019294739,
				0.3081669509410858,
				0.3081669509410858
			],
			"translation":[
				0.028480226173996925,
				6.699453830718994,
				-5.9188079833984375
			]
		}
	],
	"materials":[
		{
			"doubleSided":true,
			"name":"wheel",
			"pbrMetallicRoughness":{
				"baseColorFactor":[
					0.012037851847708225,
					0.012037851847708225,
					0.012037851847708225,
					1
				],
				"metallicFactor":0
			}
		},
		{
			"doubleSided":true,
			"name":"poles",
			"pbrMetallicRoughness":{
				"baseColorFactor":[
					0.14517314732074738,
					0.14517314732074738,
					0.14517314732074738,
					1
				],
				"roughnessFactor":0.4000000059604645
			}
		},
		{
			"doubleSided":true,
			"name":"body",
			"pbrMetallicRoughness":{
				"baseColorFactor":[
					0.43364545702934265,
					0.43364545702934265,
					0.43364545702934265,
					1
				],
				"roughnessFactor":0.3499999940395355
			}
		},
		{
			"doubleSided":true,
			"name":"face",
			"pbrMetallicRoughness":{
				"baseColorFactor":[
					0.017182713374495506,
					0.017182713374495506,
					0.017182713374495506,
					1
				],
				"metallicFactor":0.5,
				"roughnessFactor":0.5
			}
		},
		{
			"doubleSided":true,
			"name":"solarplate",
			"pbrMetallicRoughness":{
				"baseColorTexture":{
					"index":0
				},
				"metallicFactor":0.5,
				"roughnessFactor":0.5
			}
		},
		{
			"doubleSided":true,
			"name":"rings",
			"pbrMetallicRoughness":{
				"baseColorFactor":[
					0.07065272331237793,
					0.12261176854372025,
					0.06846669316291809,
					1
				],
				"metallicFactor":0
			}
		},
		{
			"doubleSided":true,
			"name":"Material",
			"pbrMetallicRoughness":{
				"baseColorFactor":[
					0.044483453035354614,
					0.122608482837677,
					0.035149600356817245,
					1
				],
				"metallicFactor":0,
				"roughnessFactor":0.5
			}
		}
	],
	"meshes":[
		{
			"name":"Cylinder.005",
			"primitives":[
				{
					"attributes":{
						"POSITION":0,
						"TEXCOORD_0":1,
						"NORMAL":2
					},
					"indices":3,
					"material":0
				},
				{
					"attributes":{
						"POSITION":4,
						"TEXCOORD_0":5,
						"NORMAL":6
					},
					"indices":7,
					"material":1
				},
				{
					"attributes":{
						"POSITION":8,
						"TEXCOORD_0":9,
						"NORMAL":10
					},
					"indices":11,
					"material":2
				},
				{
					"attributes":{
						"POSITION":12,
						"TEXCOORD_0":13,
						"NORMAL":14
					},
					"indices":15,
					"material":3
				},
				{
					"attributes":{
						"POSITION":16,
						"TEXCOORD_0":17,
						"NORMAL":18
					},
					"indices":19,
					"material":4
				}
			]
		},
		{
			"name":"Torus.006",
			"primitives":[
				{
					"attributes":{
						"POSITION":20,
						"TEXCOORD_0":21,
						"NORMAL":22
					},
					"indices":23,
					"material":5
				},
				{
					"attributes":{
						"POSITION":24,
						"TEXCOORD_0":25,
						"NORMAL":26
					},
					"indices":27,
					"material":6
				}
			]
		}
	],
	"textures":[
		{
			"sampler":0,
			"source":0
		}
	],
	"images":[
		{
			"bufferView":20,
			"mimeType":"image/jpeg",
			"name":"solarplate"
		}
	],
	"accessors":[
		{
			"bufferView":0,
			"componentType":5126,
			"count":260,
			"max":[
				1,
				19.438535690307617,
				1.000000238418579
			],
			"min":[
				-1,
				-1,
				-1
			],
			"type":"VEC3"
		},
		{
			"bufferView":1,
			"componentType":5126,
			"count":260,
			"type":"VEC2"
		},
		{
			"bufferView":2,
			"componentType":5126,
			"count":260,
			"type":"VEC3"
		},
		{
			"bufferView":3,
			"componentType":5123,
			"count":744,
			"type":"SCALAR"
		},
		{
			"bufferView":4,
			"componentType":5126,
			"count":2280,
			"max":[
				0.44317570328712463,
				18.213478088378906,
				4.8449554443359375
			],
			"min":[
				-0.44317570328712463,
				0.1809062957763672,
				-0.25316616892814636
			],
			"type":"VEC3"
		},
		{
			"bufferView":5,
			"componentType":5126,
			"count":2280,
			"type":"VEC2"
		},
		{
			"bufferView":6,
			"componentType":5126,
			"count":2280,
			"type":"VEC3"
		},
		{
			"bufferView":7,
			"componentType":5123,
			"count":9144,
			"type":"SCALAR"
		},
		{
			"bufferView":8,
			"componentType":5126,
			"count":541,
			"max":[
				1.2177494764328003,
				16.131393432617188,
				5.1202311515808105
			],
			"min":[
				-1.2177494764328003,
				2.2629899978637695,
				0.7051950097084045
			],
			"type":"VEC3"
		},
		{
			"bufferView":9,
			"componentType":5126,
			"count":541,
			"type":"VEC2"
		},
		{
			"bufferView":10,
			"componentType":5126,
			"count":541,
			"type":"VEC3"
		},
		{
			"bufferView":11,
			"componentType":5123,
			"count":2016,
			"type":"SCALAR"
		},
		{
			"bufferView":12,
			"componentType":5126,
			"count":440,
			"max":[
				0.753562331199646,
				12.280055046081543,
				4.705130100250244
			],
			"min":[
				0.6651231646537781,
				6.102128982543945,
				4.230153560638428
			],
			"type":"VEC3"
		},
		{
			"bufferView":13,
			"componentType":5126,
			"count":440,
			"type":"VEC2"
		},
		{
			"bufferView":14,
			"componentType":5126,
			"count":440,
			"type":"VEC3"
		},
		{
			"bufferView":15,
			"componentType":5123,
			"count":1272,
			"type":"SCALAR"
		},
		{
			"bufferView":16,
			"componentType":5126,
			"count":80,
			"max":[
				0.6057507991790771,
				14.708500862121582,
				5.151638984680176
			],
			"min":[
				-0.6037362813949585,
				3.685880661010742,
				4.915821075439453
			],
			"type":"VEC3"
		},
		{
			"bufferView":17,
			"componentType":5126,
			"count":80,
			"type":"VEC2"
		},
		{
			"bufferView":18,
			"componentType":5126,
			"count":80,
			"type":"VEC3"
		},
		{
			"bufferView":19,
			"componentType":5123,
			"count":204,
			"type":"SCALAR"
		},
		{
			"bufferView":21,
			"componentType":5126,
			"count":1862,
			"max":[
				1.155364751815796,
				13.37271499633789,
				7.496593475341797
			],
			"min":[
				-1.262786626815796,
				-0.2117527723312378,
				-1.1540147066116333
			],
			"type":"VEC3"
		},
		{
			"bufferView":22,
			"componentType":5126,
			"count":1862,
			"type":"VEC2"
		},
		{
			"bufferView":23,
			"componentType":5126,
			"count":1862,
			"type":"VEC3"
		},
		{
			"bufferView":24,
			"componentType":5123,
			"count":6912,
			"type":"SCALAR"
		},
		{
			"bufferView":25,
			"componentType":5126,
			"count":497,
			"max":[
				2.75393009185791,
				13.929676055908203,
				7.2237725257873535
			],
			"min":[
				-2.638828754425049,
				-2.464252471923828,
				-3.2627506256103516
			],
			"type":"VEC3"
		},
		{
			"bufferView":26,
			"componentType":5126,
			"count":497,
			"type":"VEC2"
		},
		{
			"bufferView":27,
			"componentType":5126,
			"count":497,
			"type":"VEC3"
		},
		{
			"bufferView":28,
			"componentType":5123,
			"count":1908,
			"type":"SCALAR"
		}
	],
	"bufferViews":[
		{
			"buffer":0,
			"byteLength":3120,
			"byteOffset":0,
			"target":34962
		},
		{
			"buffer":0,
			"byteLength":2080,
			"byteOffset":3120,
			"target":34962
		},
		{
			"buffer":0,
			"byteLength":3120,
			"byteOffset":5200,
			"target":34962
		},
		{
			"buffer":0,
			"byteLength":1488,
			"byteOffset":8320,
			"target":34963
		},
		{
			"buffer":0,
			"byteLength":27360,
			"byteOffset":9808,
			"target":34962
		},
		{
			"buffer":0,
			"byteLength":18240,
			"byteOffset":37168,
			"target":34962
		},
		{
			"buffer":0,
			"byteLength":27360,
			"byteOffset":55408,
			"target":34962
		},
		{
			"buffer":0,
			"byteLength":18288,
			"byteOffset":82768,
			"target":34963
		},
		{
			"buffer":0,
			"byteLength":6492,
			"byteOffset":101056,
			"target":34962
		},
		{
			"buffer":0,
			"byteLength":4328,
			"byteOffset":107548,
			"target":34962
		},
		{
			"buffer":0,
			"byteLength":6492,
			"byteOffset":111876,
			"target":34962
		},
		{
			"buffer":0,
			"byteLength":4032,
			"byteOffset":118368,
			"target":34963
		},
		{
			"buffer":0,
			"byteLength":5280,
			"byteOffset":122400,
			"target":34962
		},
		{
			"buffer":0,
			"byteLength":3520,
			"byteOffset":127680,
			"target":34962
		},
		{
			"buffer":0,
			"byteLength":5280,
			"byteOffset":131200,
			"target":34962
		},
		{
			"buffer":0,
			"byteLength":2544,
			"byteOffset":136480,
			"target":34963
		},
		{
			"buffer":0,
			"byteLength":960,
			"byteOffset":139024,
			"target":34962
		},
		{
			"buffer":0,
			"byteLength":640,
			"byteOffset":139984,
			"target":34962
		},
		{
			"buffer":0,
			"byteLength":960,
			"byteOffset":140624,
			"target":34962
		},
		{
			"buffer":0,
			"byteLength":408,
			"byteOffset":141584,
			"target":34963
		},
		{
			"buffer":0,
			"byteLength":143113,
			"byteOffset":141992
		},
		{
			"buffer":0,
			"byteLength":22344,
			"byteOffset":285108,
			"target":34962
		},
		{
			"buffer":0,
			"byteLength":14896,
			"byteOffset":307452,
			"target":34962
		},
		{
			"buffer":0,
			"byteLength":22344,
			"byteOffset":322348,
			"target":34962
		},
		{
			"buffer":0,
			"byteLength":13824,
			"byteOffset":344692,
			"target":34963
		},
		{
			"buffer":0,
			"byteLength":5964,
			"byteOffset":358516,
			"target":34962
		},
		{
			"buffer":0,
			"byteLength":3976,
			"byteOffset":364480,
			"target":34962
		},
		{
			"buffer":0,
			"byteLength":5964,
			"byteOffset":368456,
			"target":34962
		},
		{
			"buffer":0,
			"byteLength":3816,
			"byteOffset":374420,
			"target":34963
		}
	],
	"samplers":[
		{
			"magFilter":9729,
			"minFilter":9987
		}
	],
	"buffers":[
		{
			"byteLength":378236,
			"uri":"data:application/octet-stream;base64,"
		}
	]
}
