{
	"asset":{
		"generator":"Khronos glTF Blender I/O v3.5.30",
		"version":"2.0"
	},
	"scene":0,
	"scenes":[
		{
			"name":"Scene",
			"nodes":[
				0,
				1
			]
		}
	],
	"nodes":[
		{
			"mesh":0,
			"name":"Plane"
		},
		{
			"mesh":1,
			"name":"Cube",
			"rotation":[
				0.3212355375289917,
				-0.11504090577363968,
				-0.01850409433245659,
				0.9398036599159241
			],
			"scale":[
				2.5157840251922607,
				9.440345764160156,
				2.5157840251922607
			],
			"translation":[
				-35.24367141723633,
				0,
				3.242154121398926
			]
		}
	],
	"materials":[
		{
			"doubleSided":true,
			"name":"Material.001",
			"pbrMetallicRoughness":{
				"baseColorFactor":[
					0.800000011920929,
					0.800000011920929,
					0.800000011920929,
					1
				],
				"metallicFactor":0,
				"roughnessFactor":0.5
			}
		},
		{
			"doubleSided":true,
			"name":"Material.002",
			"pbrMetallicRoughness":{
				"baseColorFactor":[
					0.800000011920929,
					0.800000011920929,
					0.800000011920929,
					1
				],
				"metallicFactor":0,
				"roughnessFactor":0.5
			}
		}
	],
	"meshes":[
		{
			"name":"Plane",
			"primitives":[
				{
					"attributes":{
						"POSITION":0,
						"TEXCOORD_0":1,
						"NORMAL":2
					},
					"indices":3,
					"material":0
				}
			]
		},
		{
			"name":"Cube.001",
			"primitives":[
				{
					"attributes":{
						"POSITION":4,
						"TEXCOORD_0":5,
						"NORMAL":6
					},
					"indices":7,
					"material":1
				}
			]
		}
	],
	"accessors":[
		{
			"bufferView":0,
			"componentType":5126,
			"count":7389,
			"max":[
				50.00000762939453,
				13.497879981994629,
				50.00000762939453
			],
			"min":[
				-50.00000762939453,
				-19.54338264465332,
				-50.00000762939453
			],
			"type":"VEC3"
		},
		{
			"bufferView":1,
			"componentType":5126,
			"count":7389,
			"type":"VEC2"
		},
		{
			"bufferView":2,
			"componentType":5126,
			"count":7389,
			"type":"VEC3"
		},
		{
			"bufferView":3,
			"componentType":5123,
			"count":13188,
			"type":"SCALAR"
		},
		{
			"bufferView":4,
			"componentType":5126,
			"count":24,
			"max":[
				1,
				1,
				1
			],
			"min":[
				-1,
				-1,
				-1
			],
			"type":"VEC3"
		},
		{
			"bufferView":5,
			"componentType":5126,
			"count":24,
			"type":"VEC2"
		},
		{
			"bufferView":6,
			"componentType":5126,
			"count":24,
			"type":"VEC3"
		},
		{
			"bufferView":7,
			"componentType":5123,
			"count":36,
			"type":"SCALAR"
		}
	],
	"bufferViews":[
		{
			"buffer":0,
			"byteLength":88668,
			"byteOffset":0,
			"target":34962
		},
		{
			"buffer":0,
			"byteLength":59112,
			"byteOffset":88668,
			"target":34962
		},
		{
			"buffer":0,
			"byteLength":88668,
			"byteOffset":147780,
			"target":34962
		},
		{
			"buffer":0,
			"byteLength":26376,
			"byteOffset":236448,
			"target":34963
		},
		{
			"buffer":0,
			"byteLength":288,
			"byteOffset":262824,
			"target":34962
		},
		{
			"buffer":0,
			"byteLength":192,
			"byteOffset":263112,
			"target":34962
		},
		{
			"buffer":0,
			"byteLength":288,
			"byteOffset":263304,
			"target":34962
		},
		{
			"buffer":0,
			"byteLength":72,
			"byteOffset":263592,
			"target":34963
		}
	],
	"buffers":[
		{
			"byteLength":263664,
			"uri":"Terrain.bin"
		}
	]
}
